# xmcd
#
# Track frame offsets: 
#        150
#        14619
#        32248
#        48483
#        65115
#        83042
#        101518
#        117012
#        130171
#        146729
#        162268
#        177808
#
# Disc length: 2600 seconds
#
# Revision: 0
# Processed by: cddbd v1.5.2PL0 Copyright (c) Steve Scherf et al.
# Submitted via: ExactAudioCopy v1.1
#
DISCID=a30a260c
DTITLE=Ida Elina - Hello World
DYEAR=2015
DGENRE=Folk
TTITLE0=Wake Up
TTITLE1=Billie Jean
TTITLE2=Laivat
TTITLE3=Feeling Good
TTITLE4=Hello World
TTITLE5=Carry Me
TTITLE6=Don't Tell Mama
TTITLE7=Happy
TTITLE8=His Name Is Jesus
TTITLE9=Life Is Easy
TTITLE10=Ei avata saa
TTITLE11=Myrskyluodon Maija
EXTD=
EXTT0=
EXTT1=
EXTT2=
EXTT3=
EXTT4=
EXTT5=
EXTT6=
EXTT7=
EXTT8=
EXTT9=
EXTT10=
EXTT11=
PLAYORDER=
